<?xml version="1.0" standalone="no"?>
<!DOCTYPE svg PUBLIC "-//W3C//DTD SVG 20010904//EN"
 "http://www.w3.org/TR/2001/REC-SVG-20010904/DTD/svg10.dtd">
<svg version="1.0" xmlns="http://www.w3.org/2000/svg"
 width="1000.000000pt" height="1000.000000pt" viewBox="0 0 1000.000000 1000.000000"
 preserveAspectRatio="xMidYMid meet">
<metadata>
Created by potrace 1.11, written by Peter Selinger 2001-2013
</metadata>
<g transform="translate(0.000000,1000.000000) scale(0.100000,-0.100000)"
fill="#000000" stroke="none">
<path d="M4670 9350 c-497 -49 -962 -237 -1351 -545 -79 -63 -318 -298 -359
-353 -14 -18 -37 -48 -53 -65 -67 -78 -287 -435 -287 -466 0 -4 -12 -14 -27
-23 -64 -38 -291 -214 -398 -307 -111 -98 -383 -382 -478 -501 -305 -379 -551
-829 -702 -1285 -79 -238 -150 -551 -170 -746 -4 -30 -8 -61 -10 -69 -27 -102
-27 -790 0 -953 2 -12 9 -60 15 -107 28 -208 110 -545 184 -757 303 -857 871
-1586 1621 -2077 194 -128 354 -214 612 -332 357 -163 833 -283 1278 -324 153
-14 556 -14 711 0 1432 130 2667 974 3309 2260 223 447 372 975 412 1460 10
122 10 610 0 718 -6 75 -12 116 -33 267 -62 444 -250 983 -486 1394 -106 186
-312 486 -395 576 -10 11 -36 43 -58 70 -67 84 -329 345 -441 440 -103 87
-223 180 -330 256 -40 29 -59 53 -89 110 -48 94 -107 193 -117 197 -4 2 -8 8
-8 14 0 32 -186 264 -320 398 -241 243 -409 364 -695 504 -236 116 -550 212
-758 231 -34 4 -69 9 -77 12 -25 8 -420 11 -500 3z"/>
</g>
</svg>
